<svg width="512" height="366" viewBox="0 0 512 366" fill="none" xmlns="http://www.w3.org/2000/svg">
<path d="M3.33225 224.629V167.648H74.4758V164.315H3.33225V112.332H78.9743V109H0V227.961H79.6407V224.629H3.33225ZM143.787 142.322L114.296 181.143L85.4722 142.322H81.1403L112.297 183.642L78.1412 227.961H82.1399L114.296 186.142L146.619 227.961H150.784L116.462 183.642L147.785 142.322H143.787ZM160.781 257.285V203.969H161.114C163.114 211.744 167.057 217.992 172.944 222.713C178.831 227.434 186.328 229.794 195.436 229.794C201.323 229.794 206.544 228.6 211.098 226.212C215.652 223.824 219.456 220.575 222.511 216.465C225.565 212.355 227.898 207.579 229.509 202.136C231.119 196.694 231.924 190.973 231.924 184.975C231.924 178.533 231.091 172.59 229.425 167.148C227.759 161.705 225.343 156.984 222.178 152.986C219.012 148.987 215.18 145.877 210.681 143.655C206.183 141.434 201.101 140.323 195.436 140.323C191.104 140.323 187.078 140.962 183.357 142.239C179.636 143.517 176.332 145.321 173.444 147.654C170.556 149.987 168.056 152.736 165.946 155.901C163.836 159.067 162.225 162.538 161.114 166.315H160.781V142.322H157.449V257.285H160.781ZM195.436 226.628C184.995 226.628 176.609 223.046 170.278 215.882C163.947 208.718 160.781 198.415 160.781 184.975C160.781 179.421 161.559 174.145 163.114 169.147C164.669 164.149 166.918 159.761 169.861 155.985C172.805 152.208 176.443 149.209 180.774 146.988C185.106 144.766 189.994 143.655 195.436 143.655C200.99 143.655 205.85 144.766 210.015 146.988C214.18 149.209 217.624 152.236 220.345 156.068C223.066 159.9 225.121 164.288 226.51 169.23C227.898 174.173 228.592 179.421 228.592 184.975C228.592 189.974 227.954 194.944 226.676 199.887C225.399 204.83 223.427 209.273 220.761 213.216C218.096 217.159 214.68 220.38 210.515 222.88C206.349 225.379 201.323 226.628 195.436 226.628ZM250.252 227.961V179.477C250.252 174.812 250.918 170.258 252.251 165.815C253.584 161.372 255.639 157.456 258.416 154.069C261.193 150.681 264.719 148.015 268.996 146.071C273.272 144.127 278.354 143.322 284.241 143.655V140.323C279.131 140.212 274.661 140.767 270.828 141.989C266.996 143.211 263.692 144.877 260.915 146.988C258.138 149.098 255.917 151.569 254.251 154.402C252.584 157.234 251.363 160.261 250.585 163.482H250.252V142.322H246.92V227.961H250.252ZM288.406 185.808H360.049C360.272 179.921 359.688 174.257 358.3 168.814C356.912 163.371 354.69 158.539 351.636 154.319C348.581 150.098 344.638 146.71 339.806 144.155C334.974 141.6 329.226 140.323 322.562 140.323C317.785 140.323 313.12 141.323 308.566 143.322C304.012 145.322 300.013 148.237 296.57 152.069C293.127 155.901 290.35 160.594 288.24 166.148C286.129 171.702 285.074 178.033 285.074 185.142C285.074 191.473 285.796 197.388 287.24 202.886C288.684 208.384 290.905 213.161 293.904 217.215C296.903 221.269 300.763 224.407 305.484 226.628C310.205 228.85 315.897 229.905 322.562 229.794C332.336 229.794 340.556 227.045 347.22 221.547C353.885 216.048 357.828 208.301 359.05 198.304H355.718C354.274 207.746 350.58 214.827 344.638 219.547C338.695 224.268 331.226 226.628 322.228 226.628C316.119 226.628 310.954 225.573 306.733 223.463C302.513 221.352 299.069 218.464 296.404 214.799C293.738 211.133 291.766 206.829 290.489 201.886C289.211 196.944 288.517 191.584 288.406 185.808ZM356.717 182.476H288.406C288.739 176.478 289.85 171.091 291.738 166.315C293.627 161.538 296.098 157.456 299.153 154.069C302.207 150.681 305.762 148.098 309.816 146.321C313.87 144.544 318.23 143.655 322.895 143.655C328.449 143.655 333.336 144.683 337.557 146.738C341.778 148.793 345.304 151.597 348.137 155.152C350.969 158.706 353.107 162.844 354.551 167.564C355.995 172.285 356.717 177.256 356.717 182.476ZM429.194 167.648H432.526C432.526 158.095 429.749 151.153 424.195 146.821C418.641 142.489 411.088 140.323 401.536 140.323C396.204 140.323 391.706 140.99 388.04 142.322C384.375 143.655 381.376 145.377 379.043 147.487C376.711 149.598 375.045 151.93 374.045 154.485C373.045 157.04 372.545 159.484 372.545 161.816C372.545 166.481 373.378 170.202 375.045 172.979C376.711 175.756 379.321 177.922 382.875 179.477C385.319 180.588 388.096 181.587 391.206 182.476C394.316 183.365 397.926 184.309 402.036 185.308C405.701 186.197 409.311 187.086 412.866 187.974C416.42 188.863 419.558 190.057 422.279 191.556C425.001 193.056 427.222 194.972 428.944 197.305C430.665 199.637 431.526 202.692 431.526 206.468C431.526 210.134 430.665 213.244 428.944 215.799C427.222 218.353 425.028 220.436 422.363 222.047C419.697 223.657 416.725 224.823 413.449 225.545C410.172 226.267 406.979 226.628 403.869 226.628C393.761 226.628 386.013 224.379 380.626 219.881C375.239 215.382 372.545 208.301 372.545 198.637H369.213C369.213 209.412 372.129 217.298 377.96 222.296C383.792 227.295 392.428 229.794 403.869 229.794C407.534 229.794 411.227 229.377 414.948 228.544C418.669 227.711 422.002 226.351 424.945 224.462C427.889 222.574 430.277 220.131 432.109 217.131C433.942 214.132 434.858 210.467 434.858 206.135C434.858 202.025 434.053 198.693 432.443 196.138C430.832 193.584 428.722 191.473 426.111 189.807C423.501 188.141 420.558 186.836 417.281 185.892C414.004 184.947 410.7 184.031 407.367 183.143C402.702 181.921 398.62 180.866 395.121 179.977C391.622 179.088 388.374 178.033 385.375 176.811C382.487 175.589 380.182 173.84 378.46 171.563C376.738 169.286 375.878 166.037 375.878 161.816C375.878 161.039 376.1 159.65 376.544 157.651C376.988 155.651 378.044 153.624 379.71 151.569C381.376 149.515 383.931 147.682 387.374 146.071C390.817 144.461 395.538 143.655 401.536 143.655C405.646 143.655 409.394 144.1 412.782 144.988C416.17 145.877 419.086 147.293 421.529 149.237C423.973 151.181 425.861 153.652 427.194 156.651C428.527 159.65 429.194 163.316 429.194 167.648ZM506.335 167.648H509.667C509.667 158.095 506.891 151.153 501.337 146.821C495.783 142.489 488.23 140.323 478.678 140.323C473.346 140.323 468.847 140.99 465.182 142.322C461.516 143.655 458.517 145.377 456.185 147.487C453.852 149.598 452.186 151.93 451.186 154.485C450.187 157.04 449.687 159.484 449.687 161.816C449.687 166.481 450.52 170.202 452.186 172.979C453.852 175.756 456.463 177.922 460.017 179.477C462.461 180.588 465.237 181.587 468.348 182.476C471.458 183.365 475.068 184.309 479.177 185.308C482.843 186.197 486.453 187.086 490.007 187.974C493.562 188.863 496.699 190.057 499.421 191.556C502.142 193.056 504.364 194.972 506.085 197.305C507.807 199.637 508.668 202.692 508.668 206.468C508.668 210.134 507.807 213.244 506.085 215.799C504.364 218.353 502.17 220.436 499.504 222.047C496.838 223.657 493.867 224.823 490.59 225.545C487.314 226.267 484.12 226.628 481.01 226.628C470.902 226.628 463.155 224.379 457.768 219.881C452.38 215.382 449.687 208.301 449.687 198.637H446.355C446.355 209.412 449.27 217.298 455.102 222.296C460.933 227.295 469.569 229.794 481.01 229.794C484.676 229.794 488.369 229.377 492.09 228.544C495.811 227.711 499.143 226.351 502.087 224.462C505.03 222.574 507.418 220.131 509.251 217.131C511.084 214.132 512 210.467 512 206.135C512 202.025 511.195 198.693 509.584 196.138C507.974 193.584 505.863 191.473 503.253 189.807C500.643 188.141 497.699 186.836 494.422 185.892C491.146 184.947 487.841 184.031 484.509 183.143C479.844 181.921 475.762 180.866 472.263 179.977C468.764 179.088 465.515 178.033 462.516 176.811C459.628 175.589 457.323 173.84 455.602 171.563C453.88 169.286 453.019 166.037 453.019 161.816C453.019 161.039 453.241 159.65 453.686 157.651C454.13 155.651 455.185 153.624 456.851 151.569C458.517 149.515 461.072 147.682 464.515 146.071C467.959 144.461 472.679 143.655 478.678 143.655C482.787 143.655 486.536 144.1 489.924 144.988C493.312 145.877 496.227 147.293 498.671 149.237C501.115 151.181 503.003 153.652 504.336 156.651C505.669 159.65 506.335 163.316 506.335 167.648Z" fill="#222222"/>
</svg>
