<svg width="512" height="366" viewBox="0 0 512 366" fill="none" xmlns="http://www.w3.org/2000/svg">
<rect width="512" height="366" rx="45" fill="white"/>
<path d="M27.0199 220.74V169.1H91.4937V166.08H27.0199V118.971H95.5704V115.951H24V223.76H96.1744V220.74H27.0199ZM154.307 146.149L127.581 181.331L101.459 146.149H97.5334L125.769 183.596L94.8155 223.76H98.4393L127.581 185.86L156.873 223.76H160.648L129.544 183.596L157.93 146.149H154.307ZM169.708 250.334V202.017H170.01C171.822 209.063 175.395 214.725 180.73 219.003C186.065 223.281 192.86 225.42 201.114 225.42C206.449 225.42 211.18 224.338 215.308 222.174C219.435 220.01 222.882 217.066 225.65 213.341C228.419 209.617 230.533 205.288 231.992 200.356C233.452 195.423 234.182 190.239 234.182 184.803C234.182 178.965 233.427 173.58 231.917 168.647C230.407 163.715 228.217 159.437 225.349 155.813C222.48 152.189 219.007 149.371 214.93 147.357C210.853 145.344 206.248 144.337 201.114 144.337C197.188 144.337 193.539 144.916 190.167 146.074C186.795 147.231 183.8 148.867 181.183 150.981C178.566 153.095 176.301 155.586 174.389 158.455C172.476 161.324 171.016 164.47 170.01 167.892H169.708V146.149H166.688V250.334H169.708ZM201.114 222.552C191.652 222.552 184.052 219.305 178.314 212.813C172.577 206.32 169.708 196.984 169.708 184.803C169.708 179.77 170.412 174.989 171.822 170.459C173.231 165.929 175.269 161.953 177.937 158.531C180.604 155.108 183.901 152.39 187.827 150.377C191.753 148.364 196.182 147.357 201.114 147.357C206.147 147.357 210.551 148.364 214.326 150.377C218.101 152.39 221.221 155.133 223.688 158.606C226.154 162.079 228.016 166.055 229.274 170.535C230.533 175.014 231.162 179.77 231.162 184.803C231.162 189.333 230.583 193.838 229.425 198.317C228.268 202.797 226.481 206.823 224.065 210.397C221.649 213.97 218.554 216.889 214.779 219.154C211.004 221.419 206.449 222.552 201.114 222.552ZM250.791 223.76V179.821C250.791 175.593 251.395 171.466 252.603 167.439C253.811 163.413 255.673 159.865 258.189 156.794C260.706 153.724 263.902 151.308 267.777 149.547C271.653 147.785 276.258 147.055 281.593 147.357V144.337C276.963 144.237 272.911 144.74 269.438 145.847C265.965 146.955 262.971 148.465 260.454 150.377C257.938 152.29 255.925 154.529 254.415 157.096C252.905 159.663 251.797 162.406 251.093 165.325H250.791V146.149H247.771V223.76H250.791ZM285.368 185.558H350.295C350.496 180.223 349.968 175.09 348.709 170.157C347.451 165.225 345.438 160.846 342.67 157.021C339.901 153.196 336.328 150.126 331.949 147.81C327.57 145.495 322.361 144.337 316.322 144.337C311.993 144.337 307.765 145.243 303.638 147.055C299.511 148.867 295.887 151.51 292.767 154.982C289.646 158.455 287.13 162.708 285.217 167.741C283.304 172.774 282.348 178.512 282.348 184.954C282.348 190.692 283.002 196.052 284.311 201.035C285.62 206.018 287.633 210.346 290.351 214.021C293.069 217.695 296.567 220.538 300.845 222.552C305.123 224.565 310.282 225.521 316.322 225.42C325.18 225.42 332.629 222.929 338.668 217.946C344.708 212.964 348.282 205.942 349.389 196.883H346.369C345.06 205.439 341.713 211.856 336.328 216.134C330.943 220.413 324.173 222.552 316.02 222.552C310.483 222.552 305.802 221.595 301.977 219.683C298.152 217.77 295.032 215.153 292.616 211.831C290.2 208.509 288.413 204.609 287.255 200.129C286.098 195.65 285.469 190.793 285.368 185.558ZM347.275 182.539H285.368C285.67 177.103 286.677 172.221 288.388 167.892C290.099 163.564 292.339 159.865 295.107 156.794C297.875 153.724 301.096 151.384 304.771 149.773C308.445 148.163 312.396 147.357 316.624 147.357C321.657 147.357 326.086 148.288 329.911 150.151C333.736 152.013 336.932 154.555 339.499 157.776C342.066 160.997 344.003 164.747 345.312 169.025C346.621 173.303 347.275 177.807 347.275 182.539ZM412.957 169.1H415.977C415.977 160.443 413.46 154.152 408.427 150.226C403.394 146.3 396.549 144.337 387.892 144.337C383.06 144.337 378.983 144.941 375.662 146.149C372.34 147.357 369.622 148.918 367.508 150.83C365.394 152.743 363.884 154.857 362.978 157.172C362.072 159.487 361.619 161.702 361.619 163.815C361.619 168.043 362.374 171.415 363.884 173.932C365.394 176.449 367.76 178.411 370.981 179.821C373.195 180.827 375.712 181.733 378.53 182.539C381.349 183.344 384.62 184.199 388.345 185.105C391.667 185.911 394.938 186.716 398.159 187.521C401.381 188.327 404.224 189.409 406.691 190.768C409.157 192.127 411.17 193.863 412.73 195.977C414.29 198.091 415.071 200.859 415.071 204.281C415.071 207.603 414.29 210.422 412.73 212.737C411.17 215.052 409.182 216.94 406.766 218.399C404.35 219.859 401.657 220.916 398.688 221.57C395.718 222.224 392.824 222.552 390.006 222.552C380.846 222.552 373.825 220.513 368.942 216.436C364.06 212.36 361.619 205.942 361.619 197.185H358.599C358.599 206.949 361.242 214.096 366.527 218.626C371.811 223.156 379.638 225.42 390.006 225.42C393.328 225.42 396.675 225.043 400.047 224.288C403.419 223.533 406.439 222.3 409.106 220.589C411.774 218.877 413.938 216.663 415.599 213.945C417.26 211.227 418.09 207.905 418.09 203.98C418.09 200.255 417.361 197.235 415.901 194.92C414.441 192.605 412.529 190.692 410.163 189.182C407.798 187.672 405.13 186.49 402.161 185.634C399.191 184.778 396.197 183.948 393.177 183.143C388.949 182.035 385.25 181.079 382.079 180.274C378.908 179.468 375.964 178.512 373.246 177.405C370.628 176.298 368.54 174.712 366.98 172.649C365.419 170.585 364.639 167.641 364.639 163.815C364.639 163.111 364.84 161.853 365.243 160.041C365.646 158.229 366.602 156.392 368.112 154.529C369.622 152.667 371.937 151.006 375.058 149.547C378.178 148.087 382.456 147.357 387.892 147.357C391.616 147.357 395.014 147.76 398.084 148.565C401.154 149.371 403.796 150.654 406.011 152.416C408.226 154.177 409.937 156.417 411.145 159.135C412.353 161.853 412.957 165.174 412.957 169.1ZM482.866 169.1H485.886C485.886 160.443 483.37 154.152 478.336 150.226C473.303 146.3 466.458 144.337 457.802 144.337C452.97 144.337 448.893 144.941 445.571 146.149C442.249 147.357 439.531 148.918 437.418 150.83C435.304 152.743 433.794 154.857 432.888 157.172C431.982 159.487 431.529 161.702 431.529 163.815C431.529 168.043 432.284 171.415 433.794 173.932C435.304 176.449 437.669 178.411 440.89 179.821C443.105 180.827 445.621 181.733 448.44 182.539C451.258 183.344 454.53 184.199 458.254 185.105C461.576 185.911 464.848 186.716 468.069 187.521C471.29 188.327 474.134 189.409 476.6 190.768C479.066 192.127 481.08 193.863 482.64 195.977C484.2 198.091 484.98 200.859 484.98 204.281C484.98 207.603 484.2 210.422 482.64 212.737C481.08 215.052 479.091 216.94 476.676 218.399C474.26 219.859 471.567 220.916 468.597 221.57C465.628 222.224 462.734 222.552 459.915 222.552C450.755 222.552 443.734 220.513 438.852 216.436C433.97 212.36 431.529 205.942 431.529 197.185H428.509C428.509 206.949 431.151 214.096 436.436 218.626C441.721 223.156 449.547 225.42 459.915 225.42C463.237 225.42 466.584 225.043 469.956 224.288C473.329 223.533 476.348 222.3 479.016 220.589C481.683 218.877 483.848 216.663 485.509 213.945C487.17 211.227 488 207.905 488 203.98C488 200.255 487.27 197.235 485.811 194.92C484.351 192.605 482.438 190.692 480.073 189.182C477.707 187.672 475.04 186.49 472.07 185.634C469.101 184.778 466.106 183.948 463.086 183.143C458.858 182.035 455.159 181.079 451.988 180.274C448.817 179.468 445.873 178.512 443.155 177.405C440.538 176.298 438.449 174.712 436.889 172.649C435.329 170.585 434.549 167.641 434.549 163.815C434.549 163.111 434.75 161.853 435.153 160.041C435.555 158.229 436.512 156.392 438.021 154.529C439.531 152.667 441.847 151.006 444.967 149.547C448.088 148.087 452.366 147.357 457.802 147.357C461.526 147.357 464.923 147.76 467.993 148.565C471.064 149.371 473.706 150.654 475.921 152.416C478.135 154.177 479.846 156.417 481.054 159.135C482.262 161.853 482.866 165.174 482.866 169.1Z" fill="#222222"/>
</svg>
