<svg width="190" height="215" viewBox="0 0 190 215" fill="none" xmlns="http://www.w3.org/2000/svg">
<path d="M190 0.471756L172.753 193.525L95.2246 215L17.9102 193.555L0.681 0.471756H190Z" fill="#E44D26"/>
<path d="M95.3405 198.585L157.987 181.232L172.726 16.2592H95.3405V198.585Z" fill="#F16529"/>
<path d="M61.8122 63.6214H95.3405V39.9403H95.2585H35.9103L36.4776 46.2935L42.3028 111.552H95.3405V87.871H63.9782L61.8122 63.6214Z" fill="#EBEBEB"/>
<path d="M67.1536 123.392H54.3273H43.3617L46.6822 160.575L95.2314 174.041L95.3405 174.011V149.373L95.2366 149.4L68.8409 142.279L67.1536 123.392Z" fill="#EBEBEB"/>
<path d="M95.2586 111.552H124.443L121.692 142.264L95.2586 149.393V174.03L143.846 160.575L144.203 156.574L149.772 94.23L150.351 87.871H143.964H95.2586V111.552Z" fill="white"/>
<path d="M95.2586 63.5635V63.6214H152.431H152.507L152.983 58.2986L154.062 46.2935L154.629 39.9403H95.2586V54.6482V63.5635Z" fill="white"/>
</svg>
