<svg width="214" height="290" viewBox="0 0 214 290" fill="none" xmlns="http://www.w3.org/2000/svg">
<path d="M68.937 223.795C68.937 223.795 57.8995 230.214 76.7921 232.386C99.68 234.997 111.378 234.623 136.6 229.849C136.6 229.849 143.232 234.007 152.493 237.608C95.9502 261.841 24.526 236.205 68.937 223.795Z" fill="#5382A1"/>
<path d="M62.0279 192.173C62.0279 192.173 49.6482 201.337 68.5548 203.292C93.0044 205.814 112.313 206.021 145.724 199.587C145.724 199.587 150.345 204.272 157.611 206.834C89.2481 226.825 13.1039 208.411 62.0279 192.173Z" fill="#5382A1"/>
<path d="M120.274 138.53C134.206 154.571 116.614 169.005 116.614 169.005C116.614 169.005 151.99 150.743 135.743 127.874C120.569 106.548 108.933 95.9519 171.927 59.4177C171.927 59.4177 73.0475 84.1132 120.274 138.53Z" fill="#F8981D"/>
<path d="M195.056 247.185C195.056 247.185 203.224 253.916 186.061 259.122C153.424 269.009 50.2219 271.995 21.5529 259.516C11.2472 255.033 30.5734 248.811 36.6527 247.505C42.9928 246.131 46.6159 246.387 46.6159 246.387C35.1549 238.313 -27.4637 262.24 14.8088 269.092C130.092 287.788 224.959 260.674 195.056 247.185Z" fill="#5382A1"/>
<path d="M74.2449 159.408C74.2449 159.408 21.7499 171.877 55.6551 176.404C69.9709 178.321 98.5091 177.887 125.092 175.66C146.817 173.827 168.631 169.931 168.631 169.931C168.631 169.931 160.97 173.212 155.428 176.996C102.121 191.016 -0.860051 184.494 28.7867 170.153C53.8591 158.033 74.2449 159.408 74.2449 159.408Z" fill="#5382A1"/>
<path d="M168.414 212.046C222.604 183.886 197.549 156.826 180.061 160.472C175.774 161.364 173.863 162.137 173.863 162.137C173.863 162.137 175.454 159.644 178.494 158.565C213.091 146.402 239.698 194.439 167.325 213.465C167.325 213.466 168.164 212.716 168.414 212.046Z" fill="#5382A1"/>
<path d="M135.743 0.424622C135.743 0.424622 165.754 30.4459 107.279 76.6101C60.3876 113.642 96.5862 134.756 107.259 158.88C79.8882 134.185 59.8014 112.445 73.2772 92.212C93.0565 62.5115 147.852 48.1116 135.743 0.424622Z" fill="#F8981D"/>
<path d="M79.5698 288.35C131.585 291.68 211.461 286.503 213.352 261.891C213.352 261.891 209.716 271.221 170.365 278.631C125.968 286.985 71.2118 286.01 38.7352 280.655C38.736 280.655 45.3836 286.158 79.5698 288.35Z" fill="#5382A1"/>
</svg>
