<svg width="57" height="127" viewBox="0 0 57 127" fill="none" xmlns="http://www.w3.org/2000/svg">
<path fill-rule="evenodd" clip-rule="evenodd" d="M31.2191 126.711L27.8498 125.56C27.8498 125.56 28.2613 108.39 22.0964 107.158C17.988 102.392 22.7555 -94.9458 37.5488 106.5C37.5488 106.5 32.4526 109.046 31.5486 113.402C30.5618 117.674 31.2191 126.711 31.2191 126.711V126.711Z" fill="white"/>
<path fill-rule="evenodd" clip-rule="evenodd" d="M31.2191 126.711L27.8498 125.56C27.8498 125.56 28.2613 108.39 22.0964 107.158C17.988 102.392 22.7555 -94.9458 37.5488 106.5C37.5488 106.5 32.4526 109.046 31.5486 113.402C30.5618 117.674 31.2191 126.711 31.2191 126.711V126.711Z" fill="#A6A385"/>
<path fill-rule="evenodd" clip-rule="evenodd" d="M33.0279 110.116C33.0279 110.116 62.5343 90.7262 55.6293 50.387C48.9728 21.0587 33.2746 11.4464 31.5486 7.74914C29.6587 5.12016 27.8499 0.520111 27.8499 0.520111L29.0834 82.0995C29.0834 82.1823 26.5353 107.075 33.0288 110.116" fill="white"/>
<path fill-rule="evenodd" clip-rule="evenodd" d="M33.0279 110.116C33.0279 110.116 62.5343 90.7262 55.6293 50.387C48.9728 21.0587 33.2746 11.4464 31.5486 7.74914C29.6587 5.12016 27.8499 0.520111 27.8499 0.520111L29.0834 82.0995C29.0834 82.1823 26.5353 107.075 33.0288 110.116" fill="#499D4A"/>
<path fill-rule="evenodd" clip-rule="evenodd" d="M26.1247 111.183C26.1247 111.183 -1.57373 92.2869 0.0703682 59.0147C1.63163 25.7416 21.1924 9.39258 24.9731 6.43509C27.4393 3.80611 27.5212 2.81968 27.686 0.190704C29.412 3.88801 29.0834 55.4821 29.3292 61.5609C30.0684 84.9751 28.0146 106.748 26.1247 111.183Z" fill="white"/>
<path fill-rule="evenodd" clip-rule="evenodd" d="M26.1247 111.183C26.1247 111.183 -1.57373 92.2869 0.0703682 59.0147C1.63163 25.7416 21.1924 9.39258 24.9731 6.43509C27.4393 3.80611 27.5212 2.81968 27.686 0.190704C29.412 3.88801 29.0834 55.4821 29.3292 61.5609C30.0684 84.9751 28.0146 106.748 26.1247 111.183Z" fill="#58AA50"/>
</svg>
