<svg width="157" height="154" viewBox="0 0 157 154" fill="none" xmlns="http://www.w3.org/2000/svg">
<path d="M143.834 118.541C135.388 118.326 128.848 119.176 123.359 121.496C121.774 122.128 119.254 122.128 119.034 124.129C119.89 124.976 119.989 126.342 120.732 127.511C121.997 129.619 124.204 132.456 126.218 133.935C128.43 135.628 130.65 137.305 132.978 138.781C137.083 141.318 141.735 142.795 145.736 145.324C148.066 146.794 150.383 148.697 152.716 150.28C153.863 151.124 154.598 152.493 156.086 153.021V152.699C155.341 151.75 155.129 150.379 154.397 149.323L151.227 146.269C148.165 142.16 144.36 138.572 140.255 135.625C136.876 133.3 129.486 130.138 128.116 126.249L127.901 126.035C130.224 125.817 132.978 124.976 135.184 124.33C138.775 123.384 142.049 123.599 145.733 122.653C147.428 122.23 149.109 121.699 150.809 121.177V120.226C148.9 118.326 147.538 115.803 145.529 114.008C140.156 109.37 134.235 104.835 128.116 101.038C124.839 98.9243 120.624 97.5638 117.135 95.7659C115.878 95.1308 113.76 94.8175 113.019 93.7619C111.127 91.4418 110.062 88.3878 108.689 85.6415C105.638 79.8469 102.674 73.4172 100.041 67.2895C98.1373 63.1799 96.979 59.076 94.6569 55.2741C83.7807 37.3511 71.9694 26.4957 53.816 15.8407C49.9147 13.6222 45.2732 12.6766 40.3153 11.5138L32.3969 11.096C30.7075 10.3565 29.0154 8.34972 27.5407 7.40136C21.5178 3.6079 6.01144 -4.61409 1.58185 6.24131C-1.27139 13.1028 5.80238 19.8487 8.23188 23.3288C10.0257 25.7449 12.3507 28.494 13.605 31.2375C14.348 33.0298 14.5571 34.9322 15.3 36.8261C16.9894 41.4663 18.5685 46.6287 20.789 50.9584C21.9472 53.1656 23.21 55.4857 24.6903 57.4841C25.5378 58.6526 27.0124 59.1691 27.3345 61.0743C25.8627 63.1743 25.7468 66.344 24.9022 68.9802C21.1054 80.894 22.5885 95.653 27.9701 104.408C29.6538 107.045 33.671 112.848 39.0441 110.624C43.8014 108.727 42.7477 102.718 44.115 97.4481C44.4285 96.1751 44.2223 95.3397 44.8551 94.5042V94.7103C46.3269 97.6598 47.8129 100.502 49.1773 103.46C52.4515 108.622 58.1524 114.002 62.9012 117.578C65.4295 119.486 67.4325 122.749 70.5993 123.915V123.599H70.3902C69.749 122.653 68.811 122.23 67.9692 121.496C66.0652 119.596 63.9577 117.276 62.4802 115.171C58.0563 109.263 54.1409 102.723 50.6661 95.9748C48.9655 92.7006 47.4993 89.1217 46.1292 85.8532C45.4907 84.5915 45.4907 82.6892 44.4314 82.0541C42.8437 84.3714 40.53 86.3782 39.3718 89.2176C37.3632 93.7591 37.1542 99.3448 36.4084 105.154L35.9931 105.357C32.6314 104.513 31.4618 101.038 30.1849 98.0888C27.0237 90.5978 26.4926 78.5739 29.2357 69.9314C29.9702 67.7213 33.1483 60.761 31.8799 58.6554C31.2443 56.6373 29.1312 55.4886 27.9729 53.8995C26.6113 51.9011 25.1197 49.3722 24.1705 47.1537C21.6393 41.2518 20.3652 34.712 17.6391 28.813C16.365 26.0638 14.1531 23.2187 12.362 20.6869C10.3506 17.8418 8.13865 15.8379 6.54818 12.465C6.02273 11.3049 5.28542 9.40817 6.1301 8.1465C6.33632 7.29975 6.7657 6.98363 7.60755 6.77194C8.97485 5.61753 12.8818 7.08523 14.252 7.7203C18.1646 9.30091 21.4359 10.7771 24.7016 12.9899C26.1791 14.0484 27.7639 16.0524 29.6595 16.5802H31.8799C35.2501 17.314 39.0497 16.7834 42.2222 17.7374C47.8129 19.5325 52.8781 22.1659 57.4207 25.0082C71.2434 33.7665 82.6422 46.211 90.3375 61.0743C91.6003 63.4961 92.137 65.7145 93.2896 68.2407C95.5129 73.4115 98.2616 78.684 100.468 83.7448C102.686 88.6983 104.799 93.7562 107.965 97.8715C109.545 100.084 115.89 101.244 118.734 102.404C120.839 103.35 124.116 104.191 126.014 105.351C129.605 107.561 133.181 110.099 136.557 112.529C138.238 113.793 143.521 116.43 143.834 118.541V118.541ZM36.1852 26.9106C34.7282 26.8955 33.2757 27.0739 31.8658 27.4412V27.6529H32.0692C32.9195 29.338 34.397 30.5065 35.4507 31.977C36.301 33.6677 37.0383 35.3443 37.8717 37.0321L38.0751 36.8233C39.5639 35.7705 40.304 34.0826 40.304 31.5508C39.6628 30.8057 39.5639 30.0775 39.03 29.338C38.4085 28.2823 37.0383 27.7574 36.1852 26.9106" fill="#5D87A1"/>
</svg>
