<svg width="315" height="347" viewBox="0 0 315 347" fill="none" xmlns="http://www.w3.org/2000/svg">
<path d="M142.892 3.69309C151.475 -1.21993 162.655 -1.24212 171.231 3.69309C214.375 28.072 257.533 52.4128 300.671 76.8065C308.784 81.3768 314.211 90.4064 314.129 99.7553V246.428C314.189 256.164 308.226 265.41 299.666 269.877C256.663 294.121 213.682 318.395 170.687 342.64C161.926 347.649 150.522 347.263 142.035 341.843C129.143 334.37 116.228 326.933 103.335 319.467C100.7 317.896 97.7301 316.646 95.8697 314.091C97.5144 311.875 100.455 311.598 102.844 310.631C108.226 308.919 113.168 306.173 118.112 303.507C119.362 302.651 120.889 302.979 122.087 303.745C133.111 310.066 144.038 316.571 155.1 322.831C157.459 324.194 159.849 322.385 161.866 321.26C204.065 297.41 246.315 273.65 288.507 249.793C290.07 249.041 290.935 247.381 290.808 245.669C290.837 197.285 290.815 148.892 290.822 100.507C291.001 98.5644 289.877 96.7779 288.12 95.9827C245.266 71.8491 202.435 47.6785 159.589 23.5387C158.846 23.0284 157.967 22.7546 157.066 22.7532C156.165 22.7519 155.285 23.0232 154.541 23.5313C111.695 47.6785 68.8709 71.8713 26.0247 96.0037C24.274 96.8001 23.099 98.557 23.3074 100.507C23.3148 148.892 23.3074 197.285 23.3074 245.676C23.2331 246.512 23.4166 247.35 23.8332 248.078C24.2498 248.806 24.8795 249.389 25.6375 249.749C37.0713 256.232 48.5198 262.67 59.9609 269.132C66.4064 272.601 74.3202 274.663 81.4216 272.005C87.6883 269.757 92.0811 263.362 91.9615 256.708C92.0207 208.606 91.9319 160.497 92.0059 112.402C91.8493 110.267 93.8749 108.503 95.9511 108.704C101.445 108.667 106.946 108.63 112.44 108.718C114.733 108.667 116.311 110.966 116.027 113.117C116.005 161.524 116.086 209.932 115.99 258.338C116.005 271.239 110.705 285.276 98.7719 291.589C84.0711 299.204 65.9009 297.589 51.3776 290.287C38.8047 284.012 26.8063 276.606 14.4566 269.883C5.8745 265.441 -0.0593499 256.158 0.00106114 246.43V99.7553C-0.088939 90.2128 5.55395 81.0193 13.9203 76.5156C56.9157 52.2513 99.9037 27.9685 142.892 3.69309Z" fill="#8CC84B"/>
<path d="M180.401 105.295C199.153 104.088 219.228 104.58 236.102 113.818C249.167 120.897 256.41 135.754 256.641 150.269C256.276 152.227 254.229 153.307 252.36 153.172C246.92 153.165 241.478 153.246 236.037 153.135C233.729 153.224 232.388 151.096 232.098 149.056C230.535 142.111 226.747 135.233 220.211 131.883C210.176 126.859 198.541 127.112 187.6 127.216C179.612 127.641 171.022 128.332 164.255 133.029C159.06 136.588 157.482 143.77 159.336 149.555C161.084 153.709 165.879 155.049 169.802 156.284C192.4 162.194 216.348 161.606 238.515 169.385C247.693 172.556 256.67 178.72 259.812 188.329C263.921 201.208 262.12 216.601 252.957 226.94C245.526 235.448 234.704 240.079 223.91 242.594C209.551 245.796 194.649 245.877 180.067 244.456C166.355 242.893 152.085 239.29 141.5 229.947C132.448 222.088 128.027 209.842 128.466 198.022C128.571 196.026 130.558 194.634 132.47 194.798C137.949 194.754 143.428 194.739 148.907 194.805C151.095 194.649 152.718 196.54 152.83 198.603C153.841 205.219 156.328 212.164 162.098 216.087C173.233 223.271 187.205 222.779 199.956 222.98C210.519 222.512 222.377 222.37 230.997 215.388C235.545 211.406 236.893 204.744 235.663 199.012C234.332 194.173 229.27 191.918 224.923 190.443C202.614 183.386 178.399 185.947 156.305 177.967C147.336 174.797 138.663 168.804 135.217 159.589C130.409 146.548 132.612 130.417 142.735 120.427C152.606 110.49 166.854 106.663 180.401 105.293V105.295Z" fill="#8CC84B"/>
</svg>
