<svg width="163" height="144" viewBox="0 0 163 144" fill="none" xmlns="http://www.w3.org/2000/svg">
<path d="M133.696 46.811C131.976 46.2228 130.243 45.6779 128.496 45.1767C128.786 44.0026 129.053 42.8233 129.299 41.6393C133.235 22.5811 130.662 7.22785 121.874 2.1738C113.448 -2.67347 99.6682 2.38058 85.7508 14.4617C84.3794 15.6548 83.0385 16.8824 81.7292 18.1431C80.8525 17.3048 79.9602 16.4828 79.053 15.6774C64.4672 2.75849 49.8471 -2.68488 41.0685 2.38414C32.6508 7.24496 30.1575 21.6791 33.7009 39.7405C34.0534 41.5291 34.4514 43.3085 34.8946 45.0769C32.8259 45.663 30.828 46.2877 28.9166 46.9522C11.8168 52.899 0.895905 62.2199 0.895905 71.8873C0.895905 81.8728 12.6189 91.8882 30.4306 97.9605C31.8749 98.4506 33.3312 98.9047 34.7981 99.3224C34.3215 101.228 33.8984 103.146 33.5293 105.075C30.1511 122.822 32.7895 136.914 41.185 141.745C49.8564 146.733 64.41 141.606 78.5819 129.249C79.702 128.272 80.8264 127.236 81.9523 126.15C83.3703 127.515 84.8262 128.84 86.3183 130.124C100.046 141.907 113.603 146.665 121.991 141.821C130.655 136.818 133.47 121.68 129.814 103.261C129.535 101.854 129.21 100.418 128.845 98.9545C129.868 98.6536 130.871 98.3427 131.849 98.019C150.366 91.8996 162.412 82.0061 162.412 71.8873C162.412 62.185 151.14 52.8013 133.696 46.811V46.811Z" fill="#53C1DE"/>
<path d="M129.679 91.486C128.796 91.7777 127.89 92.0593 126.966 92.3324C124.922 85.8772 122.163 79.0128 118.787 71.9215C122.009 64.9979 124.661 58.2218 126.648 51.808C128.3 52.2858 129.904 52.7884 131.45 53.3197C146.396 58.4514 155.513 66.0404 155.513 71.8873C155.513 78.1157 145.666 86.2017 129.68 91.486H129.679ZM123.045 104.598C124.662 112.743 124.893 120.106 123.822 125.863C122.86 131.035 120.925 134.483 118.534 135.864C113.443 138.804 102.557 134.983 90.8188 124.906C89.4728 123.751 88.1168 122.518 86.7572 121.213C91.3084 116.247 95.8568 110.474 100.296 104.064C108.104 103.373 115.481 102.243 122.171 100.701C122.5 102.027 122.793 103.327 123.045 104.598V104.598ZM55.9602 135.357C50.9872 137.109 47.0264 137.159 44.6325 135.782C39.5373 132.851 37.42 121.535 40.3086 106.358C40.6521 104.564 41.0454 102.781 41.488 101.009C48.1036 102.468 55.4269 103.519 63.2541 104.152C67.7224 110.424 72.4023 116.19 77.1187 121.239C76.1163 122.206 75.0902 123.149 74.0414 124.066C67.7746 129.53 61.495 133.407 55.9609 135.357H55.9602ZM32.6622 91.4475C24.7864 88.7622 18.2823 85.2726 13.824 81.4649C9.81821 78.0423 7.79529 74.6447 7.79529 71.8873C7.79529 66.0211 16.5639 58.5377 31.1883 53.4516C33.0239 52.816 34.8777 52.2341 36.7474 51.7068C38.7689 58.2646 41.4201 65.1212 44.6196 72.0549C41.3787 79.0919 38.6895 86.0576 36.6495 92.6925C35.3104 92.3102 33.9809 91.895 32.6622 91.4475V91.4475ZM40.4723 38.4185C37.4365 22.9433 39.4522 11.2701 44.5253 8.34089C49.9293 5.22061 61.8774 9.67 74.471 20.8241C75.2759 21.5372 76.0843 22.2837 76.8942 23.056C72.2022 28.0822 67.5652 33.8044 63.1355 40.0407C55.5391 40.743 48.2673 41.871 41.5824 43.382C41.1706 41.7368 40.8005 40.0815 40.4723 38.4178V38.4185ZM110.143 55.5793C108.564 52.8586 106.927 50.1722 105.232 47.5219C110.385 48.1708 115.323 49.0336 119.959 50.0896C118.567 54.5397 116.832 59.193 114.789 63.9633C113.297 61.138 111.748 58.3428 110.143 55.5793V55.5793ZM81.7313 27.9745C84.9137 31.4135 88.1011 35.254 91.2362 39.4203C84.8765 39.1205 78.5062 39.1191 72.1464 39.416C75.2844 35.2882 78.499 31.4535 81.7313 27.9745V27.9745ZM53.1374 55.6264C51.5529 58.3679 50.0328 61.146 48.5783 63.9583C46.5689 59.2044 44.8498 54.5304 43.4459 50.0168C48.0543 48.9879 52.9687 48.1472 58.0889 47.5091C56.3749 50.1758 54.7239 52.8823 53.1374 55.6264V55.6264ZM58.2361 96.7568C52.9465 96.1679 47.9578 95.37 43.3508 94.3696C44.7769 89.7761 46.5339 85.0016 48.5861 80.1458C50.0468 82.9602 51.5736 85.7399 53.1652 88.4827C54.7894 91.2805 56.4802 94.0394 58.2361 96.7568V96.7568ZM81.9222 116.286C78.6519 112.766 75.3902 108.873 72.2043 104.685C75.2966 104.806 78.4496 104.868 81.6541 104.868C84.9466 104.868 88.2011 104.794 91.4042 104.652C88.259 108.916 85.0831 112.815 81.9222 116.286ZM114.855 79.8984C117.014 84.8069 118.834 89.5558 120.279 94.0715C115.596 95.1375 110.54 95.996 105.212 96.6335C106.919 93.9337 108.573 91.2003 110.171 88.4349C111.796 85.6244 113.357 82.7782 114.855 79.8984V79.8984ZM104.194 84.9966C101.747 89.2363 99.1628 93.3956 96.4451 97.4677C91.653 97.8093 86.7007 97.9854 81.6541 97.9854C76.6283 97.9854 71.739 97.8293 67.0305 97.5248C64.2423 93.4621 61.6092 89.2957 59.1368 85.0344C56.6759 80.7958 54.3774 76.4654 52.246 72.0527C54.3719 67.6387 56.6636 63.3061 59.1161 59.0639V59.0654C61.5678 54.8223 64.1802 50.6737 66.9476 46.6285C71.7511 46.2662 76.6762 46.0766 81.6549 46.0766C86.6557 46.0766 91.5872 46.2677 96.3893 46.6327C99.1287 50.6718 101.724 54.8059 104.171 59.0276C106.632 63.2603 108.955 67.5717 111.134 71.955C108.977 76.383 106.662 80.733 104.194 84.9966H104.194ZM118.428 8.13624C123.836 11.248 125.94 23.7954 122.542 40.2503C122.319 41.3222 122.077 42.3901 121.815 43.4533C115.115 41.911 107.838 40.763 100.219 40.0499C95.781 33.7459 91.1826 28.0138 86.5663 23.0524C87.776 21.8891 89.0144 20.756 90.2805 19.654C102.205 9.30207 113.35 5.2149 118.428 8.13624V8.13624Z" fill="white"/>
<path d="M81.6541 57.5003C89.62 57.5003 96.077 63.9419 96.077 71.8874C96.077 79.8335 89.62 86.2752 81.6541 86.2752C73.689 86.2752 67.2314 79.8335 67.2314 71.8874C67.2314 63.9419 73.689 57.5003 81.6541 57.5003" fill="#53C1DE"/>
</svg>
