<svg width="190" height="215" viewBox="0 0 190 215" fill="none" xmlns="http://www.w3.org/2000/svg">
<path d="M94.5436 215L17.2292 193.555L1.52588e-05 0.47176H189.319L172.072 193.525L94.5436 215Z" fill="#264DE4"/>
<path d="M157.306 181.232L172.045 16.2592H94.6595V198.585L157.306 181.232Z" fill="#2965F1"/>
<path d="M39.4975 87.871L41.6218 111.552H94.6595V87.871H39.4975Z" fill="#EBEBEB"/>
<path d="M35.2293 39.9403L37.3838 63.6214H94.6595V39.9403H94.5776H35.2293Z" fill="#EBEBEB"/>
<path d="M94.6595 149.373L94.5556 149.4L68.1599 142.279L66.4726 123.392H53.6463H42.6807L46.0012 160.575L94.5504 174.041L94.6595 174.011V149.373Z" fill="#EBEBEB"/>
<path d="M149.67 87.871L153.948 39.9403H94.5776V63.6214H127.974L125.818 87.871H94.5776V111.552H123.762L121.011 142.264L94.5776 149.393V174.03L143.165 160.575L143.522 156.574L149.091 94.23L149.67 87.871Z" fill="white"/>
</svg>
