<svg width="309" height="146" viewBox="0 0 309 146" fill="none" xmlns="http://www.w3.org/2000/svg">
<path d="M13.908 33.182V119.421C13.908 126.293 10.978 129.968 3.57396 129.968C2.61496 129.968 1.86896 129.915 0.803955 129.862V145.575C2.18896 145.682 3.36095 145.682 4.74595 145.682C22.803 145.682 33.19 137.372 33.19 119.688V33.182H13.908ZM23.496 21.57C29.621 21.57 34.629 16.882 34.629 11.129C34.629 5.32298 29.621 0.635986 23.496 0.635986C17.316 0.635986 12.31 5.32298 12.31 11.129C12.31 16.882 17.317 21.57 23.496 21.57Z" fill="#1C1C1C"/>
<path d="M88.708 116.598C112.678 116.598 127.912 99.712 127.912 74.411C127.912 49.055 112.678 32.116 88.708 32.116C64.738 32.116 49.503 49.055 49.503 74.411C49.503 99.712 64.738 116.598 88.708 116.598ZM88.814 101.151C75.551 101.151 69.052 89.325 69.052 74.357C69.052 59.389 75.551 47.404 88.814 47.404C101.865 47.404 108.363 59.389 108.363 74.357C108.363 89.325 101.865 101.151 88.814 101.151ZM114.329 5.90898H63.086V17.681H114.329V5.90898Z" fill="#1C1C1C"/>
<path d="M185.135 33.182H168.995V13.58H149.712V33.182H138.1V48.097H149.712V93.587C149.605 108.981 160.792 116.545 175.28 116.119C180.767 115.959 184.549 114.893 186.626 114.201L183.377 99.126C182.311 99.393 180.127 99.872 177.73 99.872C172.883 99.872 168.995 98.168 168.995 90.391V48.097H185.135V33.182Z" fill="#1C1C1C"/>
<path d="M224.805 116.651C237.643 116.651 245.313 110.632 248.829 103.761H249.468V115H268.005V60.241C268.005 38.615 250.373 32.116 234.766 32.116C217.561 32.116 204.351 39.787 200.089 54.702L218.094 57.259C220.011 51.665 225.444 46.871 234.873 46.871C243.822 46.871 248.722 51.452 248.722 59.496V59.815C248.722 65.355 242.916 65.621 228.481 67.166C212.607 68.871 197.426 73.612 197.426 92.042C197.426 108.129 209.198 116.651 224.805 116.651ZM229.812 102.482C221.769 102.482 216.016 98.807 216.016 91.722C216.016 84.318 222.461 81.229 231.091 80.004C236.151 79.311 246.272 78.033 248.775 76.009V85.65C248.775 94.759 241.425 102.482 229.812 102.482Z" fill="#1C1C1C"/>
<path d="M287.394 115H306.677V33.182H287.394V115ZM297.089 21.57C303.214 21.57 308.221 16.882 308.221 11.129C308.221 5.32298 303.214 0.635986 297.089 0.635986C290.91 0.635986 285.903 5.32298 285.903 11.129C285.903 16.882 290.91 21.57 297.089 21.57Z" fill="#1C1C1C"/>
</svg>
