<svg width="190" height="190" viewBox="0 0 190 190" fill="none" xmlns="http://www.w3.org/2000/svg">
<path d="M150.276 61.3436C153.369 46.3629 154.032 34.8728 152.033 26.5294C150.844 21.5672 148.671 17.5191 145.365 14.5985C141.876 11.515 137.464 10.002 132.507 10.002C124.329 10.002 115.732 13.7273 106.544 20.8044C102.797 23.691 98.9076 27.1704 94.8683 31.2445C94.5469 30.831 94.1835 30.441 93.7786 30.0806C82.359 19.915 72.7448 13.5989 64.5216 11.1637C59.6321 9.71564 55.0415 9.57768 50.8611 10.983C46.4484 12.4665 42.9323 15.5329 40.4517 19.8281C36.3577 26.9167 35.2781 36.2311 36.8044 47.732C37.4265 52.4199 38.4901 57.5264 39.9929 63.0593C39.426 63.1277 38.8576 63.2533 38.295 63.4395C23.8061 68.2359 13.5464 73.3937 7.33498 79.2883C3.63933 82.7954 1.22603 86.6998 0.353638 91.0218C-0.567173 95.5837 0.330691 100.159 2.80846 104.451C6.89479 111.53 14.4084 117.112 25.1124 121.534C29.4104 123.31 34.2734 124.918 39.7067 126.364C39.4588 126.923 39.2665 127.517 39.1379 128.14C36.0451 143.121 35.3814 154.611 37.3805 162.954C38.5695 167.916 40.7432 171.964 44.0485 174.885C47.538 177.968 51.9499 179.481 56.9072 179.481C65.0851 179.481 73.6821 175.756 82.8696 168.679C86.6569 165.762 90.5891 162.239 94.6746 158.109C95.0949 158.765 95.611 159.376 96.2214 159.919C107.641 170.085 117.255 176.401 125.478 178.836C130.368 180.284 134.959 180.422 139.139 179.017C143.552 177.534 147.068 174.467 149.548 170.172C153.642 163.083 154.722 153.769 153.196 142.268C152.551 137.411 151.432 132.104 149.842 126.339C150.464 126.276 151.088 126.145 151.705 125.941C166.194 121.144 176.454 115.986 182.665 110.092C186.361 106.585 188.774 102.68 189.646 98.3582C190.567 93.7964 189.669 89.2207 187.192 84.9288C183.105 77.8504 175.592 72.2678 164.888 67.846C160.461 66.0176 155.436 64.3668 149.806 62.8875C150.007 62.3969 150.165 61.8811 150.276 61.3436Z" fill="#002C4B"/>
<path fill-rule="evenodd" clip-rule="evenodd" d="M80.3969 64H109.608C111.399 64 113.054 64.958 113.945 66.5115L128.577 92.0115C129.461 93.5527 129.461 95.4473 128.577 96.9885L113.945 122.488C113.054 124.042 111.399 125 109.608 125H80.3969C78.6058 125 76.9515 124.042 76.0601 122.488L61.4279 96.9885C60.5436 95.4473 60.5436 93.5527 61.4279 92.0115L76.0601 66.5115C76.9515 64.958 78.6058 64 80.3969 64ZM105.988 70.2765C107.78 70.2765 109.435 71.2356 110.326 72.7903L121.343 92.0138C122.226 93.5538 122.226 95.4462 121.343 96.9862L110.326 116.21C109.435 117.764 107.78 118.723 105.988 118.723H84.0172C82.2252 118.723 80.5702 117.764 79.6792 116.21L68.662 96.9862C67.7795 95.4462 67.7795 93.5538 68.662 92.0138L79.6792 72.7903C80.5702 71.2356 82.2252 70.2765 84.0172 70.2765H105.988ZM102.081 77.1415H87.9244C86.1342 77.1415 84.4806 78.0986 83.5889 79.6508L76.4892 92.0093C75.6032 93.5516 75.6032 95.4484 76.4892 96.9907L83.5889 109.349C84.4806 110.901 86.1342 111.859 87.9244 111.859H102.081C103.871 111.859 105.524 110.901 106.416 109.349L113.516 96.9907C114.402 95.4484 114.402 93.5516 113.516 92.0093L106.416 79.6508C105.524 78.0986 103.871 77.1415 102.081 77.1415ZM98.3192 83.7122C100.108 83.7122 101.761 84.6679 102.653 86.2183L105.984 92.0061C106.872 93.55 106.872 95.45 105.984 96.9939L102.653 102.782C101.761 104.332 100.108 105.288 98.3192 105.288H91.6859C89.897 105.288 88.2445 104.332 87.3522 102.782L84.0215 96.9939C83.133 95.45 83.133 93.55 84.0215 92.0061L87.3522 86.2183C88.2445 84.6679 89.897 83.7122 91.6859 83.7122H98.3192ZM95.0038 90.1849C93.4593 90.1849 92.0344 91.0073 91.263 92.3424C90.4917 93.6774 90.4917 95.3226 91.263 96.6576C92.0344 97.9927 93.4593 98.8151 95.0013 98.8151C96.5458 98.8151 97.9707 97.9927 98.7421 96.6576C99.5133 95.3226 99.5133 93.6774 98.7421 92.3424C97.9707 91.0073 96.5458 90.1849 95.0038 90.1849ZM60 94.501H67.7678Z" fill="#FFD94C"/>
<path fill-rule="evenodd" clip-rule="evenodd" d="M54.8602 108.358C56.1715 107.608 57.836 108.075 58.5779 109.399L59.0526 110.244C62.8563 116.983 66.819 123.38 70.9406 129.435C75.8079 136.585 81.2818 143.824 87.3625 151.151C88.3169 152.301 88.1849 154.011 87.0657 154.998L86.4542 155.535C66.3465 173.103 53.2778 176.613 47.248 166.062C41.3501 155.743 43.4845 136.983 53.6513 109.783C53.8768 109.18 54.3046 108.675 54.8602 108.358ZM140.534 129.042C141.986 128.785 143.376 129.742 143.66 131.194L143.813 131.986C148.782 157.995 145.283 171 133.316 171C121.61 171 106.709 159.909 88.6127 137.727C88.2113 137.235 87.9946 136.617 88 135.982C88.0132 134.481 89.2358 133.275 90.7309 133.288L91.6847 133.295C99.3057 133.336 106.714 133.072 113.911 132.501C122.409 131.828 131.284 130.675 140.534 129.042ZM147.409 73.812C147.932 72.4027 149.508 71.6635 150.955 72.149L151.743 72.4155C177.584 81.2179 187.402 90.8917 181.198 101.437C175.13 111.751 157.484 119.26 128.262 123.964C127.614 124.068 126.949 123.946 126.383 123.619C125.047 122.847 124.602 121.158 125.389 119.847L125.889 119.01C129.877 112.316 133.481 105.654 136.702 99.0243C140.505 91.1948 144.074 82.7907 147.409 73.812ZM61.7383 66.0363C62.3865 65.932 63.0514 66.054 63.6173 66.3812C64.953 67.1533 65.398 68.8418 64.6112 70.1526L64.1107 70.9895C60.1228 77.6837 56.5186 84.3457 53.2981 90.9757C49.495 98.8052 45.926 107.209 42.5913 116.188C42.0679 117.597 40.4916 118.337 39.0454 117.851L38.2574 117.585C12.4162 108.782 2.59764 99.1083 8.80167 88.5632C14.8701 78.2486 32.5157 70.7397 61.7383 66.0363ZM103.546 34.4654C123.653 16.8967 136.722 13.3874 142.752 23.9377C148.65 34.2573 146.516 53.0171 136.349 80.2171C136.123 80.8204 135.695 81.3247 135.14 81.6422C133.828 82.3917 132.164 81.9254 131.422 80.6007L130.947 79.7565C127.144 73.017 123.181 66.6198 119.059 60.5649C114.192 53.4146 108.718 46.1759 102.638 38.8489C101.683 37.6989 101.815 35.9888 102.934 35.0021L103.546 34.4654ZM57.6842 18C69.3903 18 84.2913 29.091 102.387 51.273C102.789 51.765 103.005 52.3826 103 53.0185C102.987 54.5193 101.764 55.7254 100.269 55.7122L99.3153 55.7055C91.6943 55.664 84.2856 55.9284 77.0893 56.4987C68.591 57.1721 59.7165 58.3254 50.4658 59.9585C49.0139 60.2148 47.6245 59.2579 47.3404 57.8058L47.1872 57.0136C42.2176 31.0045 45.7167 18 57.6842 18Z" fill="#FF4154"/>
</svg>
