<svg width="335" height="251" viewBox="0 0 335 251" fill="none" xmlns="http://www.w3.org/2000/svg">
<path d="M288.384 144.131C276.671 144.197 266.529 147.009 258.022 151.196C254.881 144.982 251.74 139.553 251.217 135.498C250.628 130.789 249.909 127.91 250.628 122.286C251.348 116.66 254.619 108.68 254.619 108.026C254.553 107.438 253.899 104.56 247.16 104.494C240.421 104.429 234.596 105.803 233.942 107.569C233.287 109.335 231.979 113.39 231.128 117.576C229.95 123.724 217.648 145.505 210.647 156.951C208.357 152.503 206.394 148.579 206 145.439C205.412 140.73 204.692 137.851 205.412 132.227C206.132 126.601 209.404 118.622 209.404 117.968C209.338 117.38 208.684 114.502 201.945 114.436C195.204 114.371 189.381 115.744 188.727 117.51C188.072 119.276 187.352 123.463 185.913 127.518C184.538 131.573 168.179 167.94 163.926 177.424C161.767 182.264 159.87 186.123 158.495 188.739C157.121 191.355 158.429 188.935 158.298 189.197C157.121 191.421 156.466 192.664 156.466 192.664V192.73C155.55 194.365 154.569 195.934 154.11 195.934C153.783 195.934 153.128 191.552 154.241 185.535C156.662 172.911 162.551 153.224 162.486 152.504C162.486 152.177 163.598 148.71 158.69 146.944C153.914 145.178 152.213 148.122 151.82 148.122C151.427 148.122 151.1 149.168 151.1 149.168C151.1 149.168 156.4 126.996 140.957 126.996C131.273 126.996 117.924 137.526 111.315 147.141C107.127 149.431 98.2281 154.27 88.8054 159.438C85.2065 161.4 81.4767 163.493 77.9432 165.39L77.224 164.604C58.5095 144.655 23.8942 130.527 25.3338 103.71C25.8572 93.9638 29.2599 68.2587 91.8168 37.1248C143.053 11.6159 184.081 18.6145 191.213 34.1815C201.355 56.42 169.292 97.7574 116.028 103.71C95.7429 105.999 85.0763 98.1499 82.3941 95.2066C79.5804 92.1324 79.1877 92.0016 78.1408 92.5903C76.4395 93.506 77.4864 96.2531 78.1408 97.8882C79.7112 102.009 86.2548 109.335 97.3788 112.997C107.128 116.202 130.947 117.968 159.739 106.849C191.998 94.3563 217.191 59.6904 209.797 30.7149C202.272 1.21618 153.326 -8.46411 107.063 7.95314C79.5143 17.7642 49.6757 33.0696 28.2129 53.1496C2.6931 76.9579 -1.36389 97.7574 0.337427 106.391C6.2927 137.198 48.7596 157.278 65.7728 172.126C64.9222 172.583 64.1369 173.041 63.4172 173.434C54.9106 177.619 22.52 194.56 14.406 212.481C5.24508 232.758 15.8456 247.344 22.9126 249.306C44.7681 255.389 67.147 244.466 79.2525 226.479C91.292 208.492 89.8531 185.142 84.291 174.48L84.0941 174.088L90.7685 170.163C95.0879 167.613 99.3412 165.258 103.07 163.23C100.977 168.92 99.4714 175.657 98.6868 185.468C97.7707 196.98 102.482 211.893 108.698 217.779C111.447 220.33 114.719 220.396 116.747 220.396C123.945 220.396 127.217 214.443 130.816 207.314C135.265 198.615 139.191 188.542 139.191 188.542C139.191 188.542 134.284 215.817 147.698 215.817C152.606 215.817 157.513 209.473 159.738 206.202V206.268C159.738 206.268 159.869 206.071 160.131 205.614C160.405 205.208 160.667 204.794 160.916 204.371V204.241C162.879 200.839 167.263 193.056 173.807 180.171C182.247 163.557 190.362 142.758 190.362 142.758C190.362 142.758 191.147 147.859 193.568 156.232C195.007 161.203 198.148 166.631 200.569 171.929C198.606 174.677 197.428 176.247 197.428 176.247L197.494 176.312C195.924 178.405 194.156 180.63 192.325 182.853C185.65 190.833 177.667 199.925 176.62 202.541C175.377 205.615 175.639 207.904 178.06 209.736C179.827 211.044 182.968 211.305 186.305 211.044C192.325 210.651 196.513 209.147 198.607 208.231C201.878 207.054 205.608 205.288 209.207 202.672C215.751 197.832 219.742 190.964 219.35 181.807C219.153 176.771 217.518 171.8 215.489 167.091C216.078 166.24 216.668 165.389 217.256 164.474C227.595 149.364 235.578 132.752 235.578 132.752C235.578 132.752 236.363 137.853 238.784 146.226C240.027 150.477 242.514 155.122 244.739 159.7C235.054 167.614 228.969 176.772 226.875 182.789C223.014 193.908 226.024 198.945 231.717 200.122C234.268 200.645 237.933 199.468 240.681 198.291C244.084 197.179 248.206 195.281 252.002 192.469C258.546 187.629 264.827 180.892 264.5 171.801C264.304 167.614 263.191 163.494 261.686 159.569C269.931 156.168 280.597 154.206 294.142 155.841C323.261 159.242 329.019 177.426 327.908 185.013C326.795 192.601 320.71 196.786 318.681 198.094C316.652 199.337 315.998 199.796 316.194 200.711C316.456 202.085 317.372 202.019 319.139 201.758C321.56 201.365 334.451 195.544 334.974 181.548C335.759 163.558 318.681 143.936 288.384 144.131V144.131ZM63.8098 219.808C54.1908 230.338 40.6456 234.328 34.8873 230.927C28.671 227.329 31.0914 211.828 42.9359 200.643C50.1338 193.841 59.491 187.562 65.642 183.703C67.0161 182.852 69.11 181.61 71.5966 180.105C71.9892 179.844 72.2509 179.713 72.2509 179.713C72.709 179.451 73.2325 179.124 73.7559 178.797C78.1401 194.757 73.9523 208.754 63.8098 219.808V219.808ZM134.153 171.995C130.816 180.171 123.749 201.166 119.495 199.989C115.83 199.008 113.606 183.114 118.775 167.416C121.392 159.501 126.954 150.083 130.226 146.42C135.527 140.533 141.285 138.571 142.725 140.991C144.426 144.131 136.247 166.893 134.153 171.995ZM192.194 199.728C190.754 200.448 189.446 200.97 188.857 200.578C188.399 200.317 189.445 199.336 189.445 199.336C189.445 199.336 196.708 191.552 199.588 187.955C201.223 185.862 203.187 183.442 205.28 180.695V181.48C205.281 190.898 196.251 197.177 192.194 199.728ZM236.951 189.524C235.904 188.739 236.036 186.319 239.569 178.732C240.943 175.723 244.084 170.687 249.515 165.912C250.169 167.874 250.562 169.77 250.496 171.537C250.432 183.31 242.056 187.693 236.951 189.524Z" fill="#CF649A"/>
</svg>
